HIERARCHY
ROOT hip
{
	OFFSET 0.00000 0.00000 0.00000
	CHANNELS 6 Xposition Yposition Zposition Zrotation Yrotation Xrotation 
	JOINT rightuplegdummy
	{
		OFFSET 0 0 0
		CHANNELS 3 Zrotation Yrotation Xrotation
		JOINT rightupleg
		{
			OFFSET -3.52197 -3.41223 0.04002
			CHANNELS 3 Zrotation Yrotation Xrotation
			JOINT rightleg
			{
				OFFSET 0.00006 -17.42390 1.60435
				CHANNELS 3 Zrotation Yrotation Xrotation
				JOINT rightfoot
				{
					OFFSET 0.06153 -16.50078 -1.63901
					CHANNELS 3 Zrotation Yrotation Xrotation
					JOINT righttoes
					{
						OFFSET 0.00298 -1.73825 3.34613
						CHANNELS 3 Zrotation Yrotation Xrotation
						End Site
						{
							OFFSET 0.00480 -0.05416 3.85043
						}
					}
				}
			}
		}
	}
	JOINT spinedummy
	{
		OFFSET 0 0 0
		CHANNELS 3 Zrotation Yrotation Xrotation
		JOINT spine
		{
			OFFSET 0.00000 4.68130 0.00000
			CHANNELS 3 Zrotation Yrotation Xrotation
			JOINT spine1
			{
				OFFSET -0.00000 10.10138 0.05002
				CHANNELS 3 Zrotation Yrotation Xrotation
				JOINT headdummy
				{
					OFFSET 0 0 0
					CHANNELS 3 Zrotation Yrotation Xrotation
					JOINT head
					{
						OFFSET -0.00000 3.43865 0.00438
						CHANNELS 3 Zrotation Yrotation Xrotation
						End Site
						{
							OFFSET -0.11417 5.02924 0.98962
						}
					}
				}
				JOINT leftshoulder1dummy
				{
					OFFSET 0 0 0
					CHANNELS 3 Zrotation Yrotation Xrotation
					JOINT leftshoulder1
					{
						OFFSET 3.53937 -0.14262 -0.08662
						CHANNELS 3 Zrotation Yrotation Xrotation
						JOINT leftarm
						{
							OFFSET 4.04833 -0.00133 0.12681
							CHANNELS 3 Zrotation Yrotation Xrotation
							JOINT leftforearm
							{
								OFFSET 10.33880 -0.01036 -0.55515
								CHANNELS 3 Zrotation Yrotation Xrotation
								JOINT lefthand
								{
									OFFSET 8.69677 0.07543 0.40060
									CHANNELS 3 Zrotation Yrotation Xrotation
									End Site
									{
										OFFSET 5.28377 -0.21905 0.59205
									}
								}
							}
						}
					}
				}
				JOINT rightshoulderdummy
				{
					OFFSET 0 0 0
					CHANNELS 3 Zrotation Yrotation Xrotation
					JOINT rightshoulder
					{
						OFFSET -3.53937 -0.14262 -0.08660
						CHANNELS 3 Zrotation Yrotation Xrotation
						JOINT rightarm
						{
							OFFSET -4.04833 -0.00133 0.12683
							CHANNELS 3 Zrotation Yrotation Xrotation
							JOINT rightforearm
							{
								OFFSET -10.37987 -0.01039 -0.55511
								CHANNELS 3 Zrotation Yrotation Xrotation
								JOINT righthand
								{
									OFFSET -8.67398 0.07538 0.40058
									CHANNELS 3 Zrotation Yrotation Xrotation
									End Site
									{
										OFFSET -5.24810 -0.21916 0.59204
									}
								}
							}
						}
					}
				}
			}
		}
	}
	JOINT leftuplegdummy
	{
		OFFSET 0 0 0
		CHANNELS 3 Zrotation Yrotation Xrotation
		JOINT leftupleg
		{
			OFFSET 3.52197 -3.41223 0.04002
			CHANNELS 3 Zrotation Yrotation Xrotation
			JOINT leftleg
			{
				OFFSET -0.00012 -17.42399 1.60337
				CHANNELS 3 Zrotation Yrotation Xrotation
				JOINT leftfoot
				{
					OFFSET -0.09972 -16.50070 -1.63802
					CHANNELS 3 Zrotation Yrotation Xrotation
					JOINT lefttoes
					{
						OFFSET -0.01575 -1.73823 3.34611
						CHANNELS 3 Zrotation Yrotation Xrotation
						End Site
						{
							OFFSET 0.03150 -0.01868 3.85031
						}
					}
				}
			}
		}
	}
}
MOTION
Frames: 17
Frame Time: 0.033333
-5.4252 36.3818 -23.8354 172.0220 -17.2974 -175.1100 0.0000 -0.0000 0.0000 -12.0609 -15.4761 -40.4601 9.1681 9.1293 40.5935 7.2513 -0.9278 3.4202 0.0000 0.0000 -0.0000 0.0000 -0.0000 0.0000 12.0883 5.8089 5.5478 -24.0142 13.3977 10.6609 -0.0000 -0.0000 -0.0000 14.5005 -32.7699 -16.3244 -0.0000 -0.0000 -0.0000 -28.0895 -4.3913 2.6964 -36.4041 9.7943 22.7085 -176.9212 -72.3577 165.8480 5.7365 13.7711 0.3104 -0.0000 -0.0000 -0.0000 11.5865 2.7862 1.1790 -19.1879 46.7550 -28.2606 0.1731 31.1082 7.9355 -34.2295 -2.6311 -0.8407 0.0000 -0.0000 0.0000 12.5536 17.0409 -3.7740 -1.0761 -1.8157 33.2781 -15.7201 -0.6768 -16.9785 0.0000 0.0000 0.0000
-5.6020 36.3139 -24.5157 174.0380 -10.0949 -174.7420 0.0000 -0.0000 0.0000 -10.2003 -8.3296 -42.1348 9.2499 9.2565 40.4529 7.0898 -0.8863 3.0753 0.0000 0.0000 -0.0000 0.0000 -0.0000 0.0000 12.0933 4.6729 4.1047 -21.2404 10.8203 8.7459 -0.0000 -0.0000 -0.0000 8.7483 -23.6328 -13.4972 -0.0000 -0.0000 -0.0000 -27.8761 -4.6530 2.7686 -37.5340 5.5868 22.3456 -178.3536 -65.6126 173.1816 9.4765 15.3797 0.7069 -0.0000 -0.0000 -0.0000 17.4777 3.6548 1.7290 -7.2534 51.9443 -25.6727 0.7664 51.9007 1.2782 -34.3526 -2.9611 -0.7449 0.0000 -0.0000 0.0000 14.9314 13.3613 4.1727 -1.7283 -3.0612 28.7036 -18.3162 -0.8121 -17.0080 0.0000 0.0000 0.0000
-5.7959 36.1544 -25.1633 176.8670 -2.0089 -174.6420 0.0000 -0.0000 0.0000 -8.0567 -0.0963 -43.7197 9.2234 9.1123 40.8460 6.5437 -0.7500 1.8226 0.0000 0.0000 -0.0000 0.0000 -0.0000 0.0000 8.2075 1.5824 1.2284 -12.0751 4.8633 9.0286 -0.0000 -0.0000 -0.0000 0.8681 -7.0934 -10.8187 -0.0000 -0.0000 -0.0000 -25.2798 -5.1740 2.7268 -37.3335 1.9920 19.1337 -179.0367 -58.7801 177.2522 14.2842 13.1374 0.8734 -0.0000 -0.0000 -0.0000 23.5614 4.5393 2.3960 16.9705 57.3197 -2.3942 2.0547 68.7217 -4.1993 -33.6582 -2.4560 -0.8757 0.0000 -0.0000 0.0000 15.8033 10.4915 14.4244 0.7408 0.9681 20.5272 -19.1617 -0.6541 -15.7848 0.0000 0.0000 0.0000
-6.0734 35.8049 -25.6349 178.9190 5.3092 -174.5620 0.0000 -0.0000 0.0000 -4.8920 2.5940 -45.4149 12.4455 11.3962 43.0572 5.3482 -0.5767 1.0247 0.0000 0.0000 -0.0000 0.0000 -0.0000 0.0000 -0.3765 -3.4493 0.3922 2.2525 -4.1821 8.7142 -0.0000 -0.0000 -0.0000 -8.9814 13.9487 -10.4971 -0.0000 -0.0000 -0.0000 -21.4472 -5.6227 2.5359 -29.2724 -0.4380 12.5794 -179.1858 -52.9665 177.5867 12.4598 12.0428 0.6415 -0.0000 -0.0000 -0.0000 25.5086 4.8590 2.6468 42.5083 47.5563 26.4074 9.6064 83.0557 -5.6907 -30.4876 -2.9962 -0.6481 0.0000 -0.0000 0.0000 12.9587 7.4381 24.2078 2.5096 10.6740 10.6261 -22.0041 -0.5139 -14.4530 0.0000 0.0000 0.0000
-6.3752 35.2797 -25.7509 -179.9420 8.9186 -173.9460 0.0000 -0.0000 0.0000 -2.0930 1.1828 -47.8816 16.2284 13.3668 46.3241 3.4851 -0.3906 1.6399 0.0000 0.0000 -0.0000 0.0000 -0.0000 0.0000 -9.1073 -7.7902 2.2671 15.6497 -11.9564 6.9346 -0.0000 -0.0000 -0.0000 -16.3705 29.5436 -12.5678 -0.0000 -0.0000 -0.0000 -16.6199 -5.3539 2.0655 -13.8438 -8.9967 1.7059 -179.7399 -59.0878 -173.9904 -0.3675 10.5687 -0.1095 -0.0000 -0.0000 -0.0000 26.9256 5.2125 2.8781 41.6178 23.9427 31.2581 164.6126 83.1899 131.5692 -25.1902 -4.6150 -0.1908 0.0000 -0.0000 0.0000 10.1937 5.7653 28.9138 2.2287 17.3111 3.7763 -25.3558 -0.9876 -16.1625 0.0000 0.0000 0.0000
-6.6533 34.8417 -25.5029 -179.1260 7.7642 -173.4370 0.0000 -0.0000 0.0000 -0.8723 -0.7279 -50.0080 16.6989 12.7557 48.4398 1.4825 -0.1665 1.9952 0.0000 0.0000 -0.0000 0.0000 -0.0000 0.0000 -13.1618 -9.5395 3.5298 21.5551 -15.4760 7.2111 -0.0000 -0.0000 -0.0000 -16.7980 33.5727 -13.3822 -0.0000 -0.0000 -0.0000 -8.9587 -4.0159 1.2339 3.7423 -34.9250 -14.1705 -11.0078 -76.6191 33.8016 -0.3874 -1.5059 -0.0615 -0.0000 -0.0000 -0.0000 29.6051 5.7423 3.2944 33.5409 -4.5982 22.7332 171.8346 73.5473 116.8356 -20.8795 -9.3529 0.6967 0.0000 -0.0000 0.0000 11.4217 6.0809 28.8392 1.7133 16.6420 2.3531 -26.1921 -1.9855 -20.4112 0.0000 0.0000 0.0000
-6.9781 34.4917 -25.1049 -178.7720 6.0161 -173.8930 0.0000 -0.0000 0.0000 -0.9397 -1.7129 -50.9979 15.8712 11.5207 49.7240 0.7303 -0.0777 1.9917 0.0000 0.0000 -0.0000 0.0000 -0.0000 0.0000 -13.1238 -10.1095 5.0350 21.2686 -16.5098 8.2995 -0.0000 -0.0000 -0.0000 -17.0512 33.0055 -15.2090 -0.0000 -0.0000 -0.0000 -4.1821 -2.4257 0.7167 35.2296 -55.3522 -47.6552 -2.1760 -10.9764 33.1779 7.2250 -1.2453 -0.3798 -0.0000 -0.0000 -0.0000 31.7460 6.1630 3.6482 33.5709 -25.6822 15.5406 171.8342 71.3385 97.6445 -25.6086 -13.7176 1.8087 0.0000 -0.0000 0.0000 12.4287 6.4256 28.1497 1.9927 14.8217 3.4410 -25.1272 -2.9204 -25.0823 0.0000 0.0000 0.0000
-7.3054 34.3075 -24.7815 -179.0900 7.8197 -174.2980 0.0000 -0.0000 0.0000 -1.6058 -0.5653 -51.6684 16.2472 11.7197 49.9237 1.0352 -0.1204 3.2147 0.0000 0.0000 -0.0000 0.0000 -0.0000 0.0000 -12.2606 -10.7855 6.8336 19.9223 -17.1084 8.4174 -0.0000 -0.0000 -0.0000 -22.2990 34.9856 -19.5689 -0.0000 -0.0000 -0.0000 -3.6329 -1.4137 0.5724 52.8324 -52.8914 -70.9767 -11.6983 5.7942 40.1799 5.1229 2.2067 -0.1566 -0.0000 -0.0000 -0.0000 32.1385 6.3874 3.7717 36.0776 -32.7680 15.7201 171.1595 72.6495 93.4755 -31.3425 -12.7701 2.0028 0.0000 -0.0000 0.0000 10.4361 6.2070 28.1557 2.2071 16.5154 4.5127 -24.1839 -3.3671 -27.7466 0.0000 0.0000 0.0000
-7.5609 34.4185 -24.5210 -179.7350 10.6266 -174.2780 0.0000 -0.0000 0.0000 -2.3860 0.9125 -51.7539 16.5689 12.7415 48.2345 1.4051 -0.1817 4.8470 0.0000 0.0000 -0.0000 0.0000 -0.0000 0.0000 -11.4860 -10.5750 7.0882 18.8656 -16.6733 8.6610 -0.0000 -0.0000 -0.0000 -27.7996 38.0822 -22.6893 -0.0000 -0.0000 -0.0000 -4.2062 -0.7552 0.5178 50.5025 -49.4353 -59.8291 -13.0938 3.6203 34.8879 4.6655 -1.3331 -0.2575 -0.0000 -0.0000 -0.0000 32.0560 6.4671 3.7940 36.4180 -31.8923 17.4214 171.2239 72.5988 96.9253 -34.6674 -11.4899 1.8497 0.0000 -0.0000 0.0000 8.2469 6.2804 27.6394 1.8036 19.0884 5.5005 -23.4464 -3.2324 -27.6286 0.0000 0.0000 0.0000
-7.7649 34.6590 -24.2381 179.5140 10.2160 -174.5210 0.0000 -0.0000 0.0000 -3.5428 0.2557 -50.7947 16.2307 13.5470 45.9595 3.0189 -0.4184 5.1858 0.0000 0.0000 -0.0000 0.0000 -0.0000 0.0000 -10.4099 -9.9239 6.6700 17.8438 -15.7042 9.0427 -0.0000 -0.0000 -0.0000 -34.0446 43.6195 -26.5050 -0.0000 -0.0000 -0.0000 -4.6018 -0.8144 0.5401 52.2830 -50.4161 -60.9447 -12.9050 2.5170 39.7822 5.1134 -0.1140 -0.2378 -0.0000 -0.0000 -0.0000 31.5912 6.4641 3.7467 36.5855 -30.2212 16.5446 171.2883 72.4685 97.2608 -37.6836 -11.6224 2.0772 0.0000 -0.0000 0.0000 7.3926 6.1440 26.7809 1.7334 19.1986 5.9875 -22.6140 -2.9877 -27.0174 0.0000 0.0000 0.0000
-7.8734 34.8762 -23.8564 178.3550 6.5512 -174.9010 0.0000 -0.0000 0.0000 -6.1497 -1.0111 -49.5285 14.6817 13.0555 44.0463 6.2364 -0.8803 5.0278 0.0000 0.0000 -0.0000 0.0000 -0.0000 0.0000 -9.5589 -9.8464 7.3176 16.6443 -15.1892 8.5342 -0.0000 -0.0000 -0.0000 -48.4314 53.4535 -40.3695 -0.0000 -0.0000 -0.0000 -4.3146 -0.8769 0.5371 56.9053 -52.5011 -66.9437 -13.1560 3.7677 42.5816 6.3497 1.0535 -0.2457 -0.0000 -0.0000 -0.0000 31.4501 6.5181 3.7529 36.9945 -30.0628 16.7627 170.6010 73.7621 96.6709 -39.7013 -11.9966 2.3353 0.0000 -0.0000 0.0000 7.7823 5.9226 24.9300 1.7156 15.2791 7.1993 -21.9453 -2.9751 -27.4500 0.0000 0.0000 0.0000
-7.8317 35.0644 -23.3889 176.4730 1.3579 -175.1240 0.0000 -0.0000 0.0000 -10.5555 -1.0093 -48.2560 10.0790 9.4769 42.1990 8.5980 -1.1865 4.5408 0.0000 0.0000 -0.0000 0.0000 -0.0000 0.0000 -8.6960 -9.4798 8.0908 13.6812 -14.0049 8.4128 -0.0000 -0.0000 -0.0000 -69.6365 60.9191 -63.0571 -0.0000 -0.0000 -0.0000 -4.2980 -0.2848 0.4639 65.3990 -54.7943 -72.8852 -13.3941 -1.6432 42.9733 7.3727 0.1624 -0.3311 -0.0000 -0.0000 -0.0000 31.8533 6.6409 3.8396 38.0133 -31.1793 17.5492 170.1112 74.6128 96.7171 -41.4637 -11.5192 2.2731 0.0000 -0.0000 0.0000 9.0540 6.4521 21.5147 0.8314 8.4464 10.4031 -21.2803 -2.9659 -27.9243 0.0000 0.0000 0.0000
-7.7207 35.2146 -22.9934 174.4450 -4.6757 -175.3030 0.0000 -0.0000 0.0000 -15.3235 -0.7413 -46.5349 6.7082 6.3903 41.9891 10.1823 -1.0866 0.8445 0.0000 0.0000 -0.0000 0.0000 -0.0000 0.0000 -6.4638 -8.4485 8.1707 8.6106 -11.6223 9.4956 -0.0000 -0.0000 -0.0000 -80.4660 62.7733 -74.8960 -0.0000 -0.0000 -0.0000 -5.2959 0.3209 0.4179 82.2317 -56.7590 -78.2897 -12.9452 -8.4021 38.8042 7.7523 0.7492 -0.3133 -0.0000 -0.0000 -0.0000 31.5041 6.7763 3.8551 38.6593 -33.0740 18.3463 170.3790 74.1725 96.9336 -42.7235 -11.5761 2.3751 0.0000 -0.0000 0.0000 9.9423 6.6419 18.4124 -0.1864 1.7136 13.0281 -20.7299 -2.9056 -28.0485 0.0000 0.0000 0.0000
-7.5228 35.3295 -22.7808 172.8780 -11.0599 -174.9040 0.0000 -0.0000 0.0000 -19.1725 -0.3992 -44.7687 12.1218 10.3239 44.9494 12.2569 -0.4813 -7.1353 0.0000 0.0000 -0.0000 0.0000 -0.0000 0.0000 -3.3021 -7.5089 7.8649 3.9267 -9.3129 10.6491 -0.0000 -0.0000 -0.0000 -82.2703 62.8788 -75.9278 -0.0000 -0.0000 -0.0000 -5.7341 1.0346 0.3341 96.0864 -57.2584 -70.8547 -6.7617 -17.6051 25.1084 8.9084 0.6887 -0.3646 -0.0000 -0.0000 -0.0000 30.0579 6.9552 3.7724 37.4024 -34.5063 21.4182 170.9555 73.1497 97.5576 -43.3855 -12.3033 2.7043 0.0000 -0.0000 0.0000 10.4038 5.2540 15.3709 -1.0905 -3.8166 14.6797 -20.7224 -2.8669 -27.8404 0.0000 0.0000 0.0000
-7.0527 35.3185 -22.7667 171.3940 -17.4492 -173.5110 0.0000 -0.0000 0.0000 -22.2026 1.4332 -43.9684 23.5366 17.0930 50.5641 11.1098 0.2131 -14.2063 0.0000 0.0000 -0.0000 0.0000 -0.0000 0.0000 -0.9757 -6.5416 7.8201 1.0512 -7.3711 10.8006 -0.0000 -0.0000 -0.0000 -85.8004 62.9879 -77.4925 -0.0000 -0.0000 -0.0000 -5.6390 1.3617 0.2878 100.7280 -56.3561 -69.6939 1.3688 -28.7715 24.8114 10.2041 -0.5198 -0.5125 -0.0000 -0.0000 -0.0000 28.7932 7.1647 3.7157 36.2825 -34.7182 24.7801 171.6478 71.6848 97.0019 -45.3962 -12.6072 2.9742 0.0000 -0.0000 0.0000 11.4674 3.4101 10.3747 -2.7231 -7.6208 18.2996 -20.8218 -2.7023 -26.8431 0.0000 0.0000 0.0000
-6.2463 35.2389 -22.9763 170.0370 -23.8911 -171.8550 0.0000 -0.0000 0.0000 -23.4667 3.1610 -43.4504 27.7189 17.8709 54.3048 7.6367 0.2812 -16.4732 0.0000 0.0000 -0.0000 0.0000 -0.0000 0.0000 1.1990 -5.3418 8.8125 -1.4292 -5.2406 10.1722 -0.0000 -0.0000 -0.0000 -87.8893 62.4709 -77.9806 -0.0000 -0.0000 -0.0000 -5.2355 1.2395 0.2960 100.7072 -53.7953 -80.4909 1.8745 -42.0694 39.8196 10.8592 -0.5675 -0.5501 -0.0000 -0.0000 -0.0000 28.4604 7.3250 3.7363 36.8815 -34.4046 26.9851 172.4686 69.5872 97.1240 -46.3330 -12.6243 3.0528 0.0000 -0.0000 0.0000 13.6056 1.5265 5.4359 -4.7973 -10.2119 21.2699 -21.4256 -2.4908 -25.2292 0.0000 0.0000 0.0000
-5.0961 35.2937 -23.5474 168.9690 -31.1121 -169.7750 0.0000 -0.0000 0.0000 -22.0974 1.3986 -42.5152 23.2210 14.3480 54.6438 5.2879 0.1539 -15.9560 0.0000 0.0000 -0.0000 0.0000 -0.0000 0.0000 3.8235 -4.2717 9.7394 -4.2442 -3.1543 9.5303 -0.0000 -0.0000 -0.0000 -85.3760 61.1434 -74.6933 -0.0000 -0.0000 -0.0000 -4.9791 2.7776 0.0934 100.6945 -50.7449 -86.1379 3.1079 -57.0055 46.6520 11.5706 0.0417 -0.5305 -0.0000 -0.0000 -0.0000 28.4057 7.4060 3.7584 37.7237 -33.6003 28.1377 172.9879 68.0713 98.6935 -45.5813 -12.2940 2.8578 0.0000 -0.0000 0.0000 16.4817 -0.7888 1.8002 -5.8248 -14.5400 19.6081 -24.3560 -2.0565 -21.4514 0.0000 0.0000 0.0000
